<?xml version="1.0"?>
<svg xmlns="http://www.w3.org/2000/svg" xmlns:xlink="http://www.w3.org/1999/xlink" version="1.1" id="Layer_1" x="0px" y="0px" viewBox="0 0 187.629 187.629" style="enable-background:new 0 0 187.629 187.629;" xml:space="preserve" width="512px" height="512px"><g><g>
	<g>
		<path d="M158.093,76.441V41.695C158.093,18.703,139.385,0,116.391,0H71.236C48.242,0,29.534,18.703,29.534,41.695v34.746    c-11.496,0-20.847,9.345-20.847,20.83v34.78c0,11.486,9.351,20.83,20.847,20.83h17.373c1.919,0,3.475-1.554,3.475-3.475V79.915    c0-1.92-1.556-3.475-3.475-3.475H36.483V41.695c0-19.158,15.59-34.746,34.753-34.746h45.156c19.163,0,34.753,15.588,34.753,34.746    v34.746H140.72c-1.919,0-3.475,1.554-3.475,3.475v69.492c0,1.92,1.556,3.475,3.475,3.475h7.027    c-0.203,2.639-1.097,6.711-4.37,10.61c-6.387,7.613-19.391,11.703-37.583,11.931c-0.85-4.898-5.101-8.643-10.236-8.643h-6.963    c-5.745,0-10.417,4.676-10.417,10.424c0,5.748,4.672,10.424,10.417,10.424h6.963c3.842,0,7.167-2.116,8.973-5.221    c21.294-0.046,36.16-4.902,44.171-14.449c4.636-5.525,5.813-11.321,6.018-15.076h3.375c11.496,0,20.847-9.345,20.847-20.83v-34.78    C178.941,85.786,169.589,76.441,158.093,76.441z M43.432,83.39v62.542H29.534c-7.664,0-13.898-6.226-13.898-13.881v-34.78    c0-7.655,6.235-13.881,13.898-13.881H43.432z M95.558,180.678h-6.963c-1.944,0-3.468-1.527-3.468-3.475    c0-1.917,1.556-3.475,3.468-3.475h6.963c1.944,0,3.468,1.527,3.468,3.475C99.025,179.121,97.47,180.678,95.558,180.678z     M171.992,132.051c0,7.655-6.235,13.881-13.898,13.881h-13.898V83.39h13.898c7.664,0,13.898,6.226,13.898,13.881V132.051z" data-original="#000000" class="active-path" data-old_color="#2af270" fill="#2af270"/>
	</g>
</g></g> </svg>
