<?xml version="1.0"?>
<svg xmlns="http://www.w3.org/2000/svg" xmlns:xlink="http://www.w3.org/1999/xlink" version="1.1" id="Layer_1" x="0px" y="0px" viewBox="0 0 180.679 180.679" style="enable-background:new 0 0 180.679 180.679;" xml:space="preserve" width="512px" height="512px" class=""><g><g>
	<g>
		<g>
			<path d="M180.638,100.565c-0.013-0.229-0.076-0.447-0.136-0.674c-0.061-0.23-0.115-0.453-0.22-0.662     c-0.03-0.061-0.028-0.129-0.063-0.189L136.56,22.598c-0.618-1.082-1.77-1.751-3.017-1.751h-86.41     c-1.247,0-2.399,0.669-3.017,1.751L0.458,99.04c-0.034,0.06-0.032,0.128-0.063,0.189c-0.105,0.209-0.158,0.432-0.22,0.662     c-0.06,0.227-0.123,0.444-0.136,0.674C0.036,100.633,0,100.693,0,100.764v55.593c0,1.92,1.556,3.475,3.475,3.475h173.729     c1.919,0,3.475-1.554,3.475-3.475v-55.593C180.678,100.693,180.642,100.633,180.638,100.565z M49.151,27.798h82.375     l39.691,69.492h-45.702c-1.524,0-2.869,0.991-3.319,2.446l-6.779,21.876H65.26l-6.78-21.876     c-0.449-1.455-1.795-2.446-3.318-2.446H9.46L49.151,27.798z M173.729,152.881H6.949v-48.644h45.653l6.78,21.876     c0.449,1.455,1.795,2.446,3.318,2.446h55.278c1.524,0,2.869-0.991,3.319-2.446l6.779-21.876h45.653V152.881z" data-original="#000000" class="active-path" data-old_color="#2af270" fill="#2af270"/>
			<path d="M68.226,68.474l18.639-18.638v61.351h6.949V49.836l18.639,18.639c0.679,0.678,1.567,1.018,2.457,1.018     c0.889,0,1.778-0.339,2.457-1.018c1.357-1.357,1.357-3.556,0-4.913l-24.57-24.569c-1.357-1.357-3.556-1.357-4.913,0l-24.57,24.57     c-1.357,1.357-1.357,3.556,0,4.913C64.67,69.831,66.869,69.831,68.226,68.474z" data-original="#000000" class="active-path" data-old_color="#2af270" fill="#2af270"/>
		</g>
	</g>
</g></g> </svg>
