<?xml version="1.0"?>
<svg xmlns="http://www.w3.org/2000/svg" xmlns:xlink="http://www.w3.org/1999/xlink" version="1.1" id="Layer_1" x="0px" y="0px" viewBox="0 0 172.978 172.978" style="enable-background:new 0 0 172.978 172.978;" xml:space="preserve" width="512px" height="512px" class=""><g><g>
	<g>
		<g>
			<path d="M170.085,48.486c-0.96-0.645-2.175-0.77-3.247-0.341L3.533,114.162c-1.313,0.531-2.172,1.805-2.172,3.222v52.119     c0,1.919,1.554,3.475,3.475,3.475h163.305c1.92,0,3.475-1.556,3.475-3.475V51.367C171.615,50.212,171.042,49.133,170.085,48.486z      M164.666,166.028h-27.797V96.445h-6.949v69.583h-24.322v-52.119h-6.949v52.119H8.31v-46.301L164.666,56.52V166.028z" data-original="#000000" class="active-path" data-old_color="#2af270" fill="#2af270"/>
			<path d="M18.113,73.672c0.465,0,0.936-0.095,1.391-0.294l121.142-53.127l-6.199,13.924c-0.784,1.753,0.007,3.807,1.758,4.587     c0.461,0.204,0.94,0.302,1.411,0.302c1.33-0.002,2.602-0.769,3.176-2.063l9.895-22.22c0.377-0.842,0.4-1.798,0.071-2.658     s-0.987-1.554-1.829-1.929l-22.218-9.893c-1.761-0.779-3.811,0.007-4.587,1.761c-0.784,1.753,0.007,3.807,1.758,4.587     l15.122,6.733L16.715,67.013c-1.758,0.772-2.558,2.821-1.788,4.579C15.5,72.895,16.772,73.672,18.113,73.672z" data-original="#000000" class="active-path" data-old_color="#2af270" fill="#2af270"/>
		</g>
	</g>
</g></g> </svg>
